<svg id="Layer_1" data-name="Layer 1" xmlns="http://www.w3.org/2000/svg" viewBox="0 0 90 45"><defs><style>.cls-1{fill:#006749;}</style></defs><title>LV_LBTU_logo-horizontals_2022_zals copy</title><path class="cls-1" d="M41.72,12.34V6.89h.83v4.7h2.62v.75Z"/><path class="cls-1" d="M48.1,12.34V12a1.23,1.23,0,0,1-.44.31,1.63,1.63,0,0,1-.59.09,1.89,1.89,0,0,1-.62-.09A1.14,1.14,0,0,1,46,12a1.17,1.17,0,0,1-.31-.83,1.08,1.08,0,0,1,.34-.81,1.39,1.39,0,0,1,1-.31h1V9.8a.7.7,0,0,0-.2-.54,1,1,0,0,0-.65-.18,1.4,1.4,0,0,0-.51.08,1,1,0,0,0-.34.29L45.88,9a1.5,1.5,0,0,1,.59-.44,2.29,2.29,0,0,1,.8-.12c1.06,0,1.6.45,1.6,1.33v2.6Zm0-1.72h-.91a.77.77,0,0,0-.52.15.48.48,0,0,0-.18.41.51.51,0,0,0,.17.41.89.89,0,0,0,.54.14,2.41,2.41,0,0,0,.4,0,.7.7,0,0,0,.33-.19.79.79,0,0,0,.17-.57Z"/><path class="cls-1" d="M51.22,12.34a1.12,1.12,0,0,1-.47-.1,1,1,0,0,1-.33-.24.88.88,0,0,1-.19-.34,1.12,1.12,0,0,1-.07-.4V9.12h-.44V8.53h.44V7.35h.78V8.53h.75v.59h-.75v2.1a.48.48,0,0,0,.1.33.42.42,0,0,0,.33.12h.32v.67Z"/><path class="cls-1" d="M54.18,12.34h-.63L52.13,8.46H53l.92,2.73.91-2.73h.83Z"/><path class="cls-1" d="M56.26,7.69V6.87h.83v.82Zm0,4.65V8.46h.78v3.88Z"/><path class="cls-1" d="M59.09,12.85a1.14,1.14,0,0,1-.07.41.88.88,0,0,1-.19.34.92.92,0,0,1-.33.23,1.14,1.14,0,0,1-.48.09h-.48v-.67h.35a.41.41,0,0,0,.32-.11.49.49,0,0,0,.1-.34V8.46h.78Zm-.81-5.16V6.87h.83v.82Z"/><path class="cls-1" d="M62.41,12.34V12a1.23,1.23,0,0,1-.44.31,1.63,1.63,0,0,1-.59.09,1.89,1.89,0,0,1-.62-.09,1.14,1.14,0,0,1-.42-.26A1.17,1.17,0,0,1,60,11.2a1.08,1.08,0,0,1,.34-.81,1.39,1.39,0,0,1,1-.31h1V9.8a.7.7,0,0,0-.2-.54,1,1,0,0,0-.65-.18,1.4,1.4,0,0,0-.51.08,1,1,0,0,0-.34.29L60.19,9a1.5,1.5,0,0,1,.59-.44,2.29,2.29,0,0,1,.8-.12c1.06,0,1.6.45,1.6,1.33v2.6Zm0-1.72h-.91a.77.77,0,0,0-.52.15.48.48,0,0,0-.18.41.51.51,0,0,0,.17.41.89.89,0,0,0,.54.14,2.41,2.41,0,0,0,.4,0,.7.7,0,0,0,.33-.19.79.79,0,0,0,.17-.57Z"/><path class="cls-1" d="M67.25,11.15a1.08,1.08,0,0,1-.13.54,1.1,1.1,0,0,1-.33.38,1.48,1.48,0,0,1-.51.23,2.27,2.27,0,0,1-.65.08,3.53,3.53,0,0,1-.88-.11,1.64,1.64,0,0,1-.75-.45l.52-.51a1.19,1.19,0,0,0,.53.33,2.32,2.32,0,0,0,.58.08,1.41,1.41,0,0,0,.61-.13.44.44,0,0,0,.24-.41.44.44,0,0,0-.12-.32.65.65,0,0,0-.4-.14l-.62-.05a1.46,1.46,0,0,1-.85-.3,1,1,0,0,1-.3-.77,1.07,1.07,0,0,1,.12-.51,1.12,1.12,0,0,1,.31-.37,1.71,1.71,0,0,1,.47-.23,2,2,0,0,1,.57-.08,2.92,2.92,0,0,1,.8.1,1.54,1.54,0,0,1,.63.34l-.49.49a1,1,0,0,0-.43-.21,1.77,1.77,0,0,0-.52-.07.86.86,0,0,0-.53.14.43.43,0,0,0-.18.36.38.38,0,0,0,.12.29.64.64,0,0,0,.42.15l.61.06a1.4,1.4,0,0,1,.85.31A.94.94,0,0,1,67.25,11.15Z"/><path class="cls-1" d="M45.57,18.76a1.69,1.69,0,0,1-.12.66,1.34,1.34,0,0,1-.86.77,2.09,2.09,0,0,1-.67.1h-2.2V14.85h2.12a1.71,1.71,0,0,1,1.2.4,1.4,1.4,0,0,1,.44,1.09,1.1,1.1,0,0,1-.07.41,1.33,1.33,0,0,1-.16.34,1.42,1.42,0,0,1-.24.25.76.76,0,0,1-.26.15,1.61,1.61,0,0,1,.57.44,1.21,1.21,0,0,1,.18.36A1.37,1.37,0,0,1,45.57,18.76Zm-.91-2.39a.71.71,0,0,0-.24-.58,1,1,0,0,0-.65-.2H42.55v1.56h1.22a1,1,0,0,0,.65-.2A.7.7,0,0,0,44.66,16.37Zm.08,2.35a.81.81,0,0,0-.23-.6.9.9,0,0,0-.66-.23h-1.3v1.66h1.3a.9.9,0,0,0,.66-.23A.85.85,0,0,0,44.74,18.72Z"/><path class="cls-1" d="M46.67,15.65v-.82h.83v.82Zm0,4.64V16.42h.78v3.87Z"/><path class="cls-1" d="M51.77,18.35a3.25,3.25,0,0,1-.1.87,1.43,1.43,0,0,1-.36.66,1.7,1.7,0,0,1-.48.33,1.6,1.6,0,0,1-.69.13,1.59,1.59,0,0,1-.68-.13,1.8,1.8,0,0,1-.47-.33,1.45,1.45,0,0,1-.37-.66,4.2,4.2,0,0,1,0-1.73,1.45,1.45,0,0,1,.37-.66,1.8,1.8,0,0,1,.47-.33,1.59,1.59,0,0,1,.68-.13,1.6,1.6,0,0,1,.69.13,1.7,1.7,0,0,1,.48.33,1.43,1.43,0,0,1,.36.66A3.22,3.22,0,0,1,51.77,18.35Zm-.78,0a3.83,3.83,0,0,0-.05-.6.8.8,0,0,0-.22-.46.78.78,0,0,0-.58-.22.76.76,0,0,0-.56.22.8.8,0,0,0-.22.46,3.69,3.69,0,0,0,0,1.21.77.77,0,0,0,.22.45.73.73,0,0,0,.56.23.76.76,0,0,0,.58-.23.77.77,0,0,0,.22-.45A3.86,3.86,0,0,0,51,18.35Z"/><path class="cls-1" d="M52.53,20.29v-.62l1.93-2.56H52.64v-.69h2.78V17L53.48,19.6h1.94v.69Z"/><path class="cls-1" d="M56.39,15.65v-.82h.82v.82Zm0,4.64V16.42h.78v3.87Z"/><path class="cls-1" d="M60.79,20.29V17.93a.86.86,0,0,0-.22-.66.83.83,0,0,0-.56-.2.79.79,0,0,0-.56.21.82.82,0,0,0-.24.65v2.36h-.78V16.42h.76v.39a1.26,1.26,0,0,1,.47-.33,1.56,1.56,0,0,1,.57-.11,1.51,1.51,0,0,1,.53.09,1.18,1.18,0,0,1,.73.76,2.23,2.23,0,0,1,.08.6v2.47Z"/><path class="cls-1" d="M64.86,20.29v-.35a1.37,1.37,0,0,1-.44.31,1.66,1.66,0,0,1-.59.09,1.85,1.85,0,0,1-.62-.09,1.07,1.07,0,0,1-.42-.26,1.15,1.15,0,0,1-.31-.84,1.06,1.06,0,0,1,.33-.8,1.44,1.44,0,0,1,1-.31h1v-.28a.7.7,0,0,0-.19-.54A1,1,0,0,0,64,17a1.18,1.18,0,0,0-.51.08.91.91,0,0,0-.34.29l-.52-.48a1.5,1.5,0,0,1,.6-.44,2.29,2.29,0,0,1,.8-.12c1.06,0,1.6.44,1.6,1.33v2.59ZM63,15h2.36v.56H63Zm1.85,3.57h-.91a.81.81,0,0,0-.52.15.51.51,0,0,0-.17.41.52.52,0,0,0,.17.41.89.89,0,0,0,.54.14,2.41,2.41,0,0,0,.4,0,.75.75,0,0,0,.33-.19.82.82,0,0,0,.16-.58Z"/><path class="cls-1" d="M68,20.29a1.13,1.13,0,0,1-.47-.09,1,1,0,0,1-.33-.24,1.05,1.05,0,0,1-.2-.34,1.39,1.39,0,0,1-.06-.4V17.08h-.44v-.59h.44V15.31h.78v1.18h.75v.59h-.75v2.1a.48.48,0,0,0,.1.33.42.42,0,0,0,.33.12h.32v.66Z"/><path class="cls-1" d="M71.8,20.29V17.93a.87.87,0,0,0-.23-.66.81.81,0,0,0-.55-.2.84.84,0,0,0-.57.21.82.82,0,0,0-.24.65v2.36h-.78V16.42h.77v.39a1.18,1.18,0,0,1,.47-.33,1.55,1.55,0,0,1,.56-.11,1.53,1.53,0,0,1,.54.09,1.29,1.29,0,0,1,.42.26,1.09,1.09,0,0,1,.3.5,1.89,1.89,0,0,1,.09.6v2.47Zm-.68,1.62h-.77l.54-1.13h.62Z"/><path class="cls-1" d="M76.12,20.29V19.9a1.18,1.18,0,0,1-.47.33,1.55,1.55,0,0,1-.56.11,1.53,1.53,0,0,1-.54-.09,1.29,1.29,0,0,1-.42-.26,1.2,1.2,0,0,1-.31-.5,2.23,2.23,0,0,1-.08-.6V16.42h.78v2.36a.87.87,0,0,0,.23.66.76.76,0,0,0,.55.2.81.81,0,0,0,.31-.05.61.61,0,0,0,.26-.15.89.89,0,0,0,.17-.27,1.14,1.14,0,0,0,.06-.39V16.42h.78v3.87Z"/><path class="cls-1" d="M82.3,20.29V19.9a1.18,1.18,0,0,1-.47.33,1.55,1.55,0,0,1-.56.11,1.53,1.53,0,0,1-.54-.09,1.29,1.29,0,0,1-.42-.26,1.2,1.2,0,0,1-.31-.5,2.23,2.23,0,0,1-.08-.6V16.42h.78v2.36a.87.87,0,0,0,.23.66.76.76,0,0,0,.55.2.81.81,0,0,0,.31-.05.68.68,0,0,0,.26-.15.89.89,0,0,0,.17-.27,1.14,1.14,0,0,0,.06-.39V16.42h.78v3.87Z"/><path class="cls-1" d="M86.67,20.29V17.93a.87.87,0,0,0-.23-.66.81.81,0,0,0-.55-.2.84.84,0,0,0-.57.21.82.82,0,0,0-.24.65v2.36H84.3V16.42h.77v.39a1.18,1.18,0,0,1,.47-.33,1.55,1.55,0,0,1,.56-.11,1.53,1.53,0,0,1,.54.09,1.29,1.29,0,0,1,.42.26,1.18,1.18,0,0,1,.3.5,1.89,1.89,0,0,1,.09.6v2.47Z"/><path class="cls-1" d="M42.78,28.25a1.13,1.13,0,0,1-.47-.09.83.83,0,0,1-.33-.24.9.9,0,0,1-.2-.34,1.4,1.4,0,0,1-.06-.41V25h-.45v-.6h.45V23.27h.78v1.17h.75V25H42.5v2.1a.48.48,0,0,0,.1.33.41.41,0,0,0,.32.12h.33v.66Z"/><path class="cls-1" d="M44.8,26.54a1.16,1.16,0,0,0,.25.8.9.9,0,0,0,.74.29,1.36,1.36,0,0,0,.53-.09,2,2,0,0,0,.41-.3l.49.46a2.32,2.32,0,0,1-.3.26,1.5,1.5,0,0,1-.32.19,1.45,1.45,0,0,1-.37.11,2.19,2.19,0,0,1-.46,0,2.48,2.48,0,0,1-.68-.1,1.46,1.46,0,0,1-.56-.34,1.7,1.7,0,0,1-.37-.62,2.53,2.53,0,0,1-.14-.93,2.14,2.14,0,0,1,.45-1.46,1.5,1.5,0,0,1,1.2-.52,1.75,1.75,0,0,1,.7.14,1.48,1.48,0,0,1,.51.38,1.6,1.6,0,0,1,.32.59,2.29,2.29,0,0,1,.12.76v.34ZM46.54,26a2.07,2.07,0,0,0,0-.29,1.68,1.68,0,0,0-.08-.24.8.8,0,0,0-.77-.49.86.86,0,0,0-.48.13.79.79,0,0,0-.29.36,1,1,0,0,0-.08.24,2.07,2.07,0,0,0,0,.29Z"/><path class="cls-1" d="M50.69,28.25V25.87a.82.82,0,0,0-.23-.64.76.76,0,0,0-.55-.2.79.79,0,0,0-.56.2.83.83,0,0,0-.23.64v2.38h-.78V22.81h.78v2a1.15,1.15,0,0,1,.46-.33,1.24,1.24,0,0,1,.54-.11,1.5,1.5,0,0,1,.58.1,1.17,1.17,0,0,1,.68.74,1.81,1.81,0,0,1,.09.58v2.5Z"/><path class="cls-1" d="M55,28.25V25.89a.86.86,0,0,0-.22-.66.87.87,0,0,0-1.12,0,.81.81,0,0,0-.24.65v2.36h-.78V24.38h.76v.39a1.26,1.26,0,0,1,.47-.33,1.41,1.41,0,0,1,.57-.11,1.57,1.57,0,0,1,.54.09,1.15,1.15,0,0,1,.41.26,1.23,1.23,0,0,1,.31.49,2.35,2.35,0,0,1,.08.6v2.48Z"/><path class="cls-1" d="M60.06,26.31a3.75,3.75,0,0,1-.09.87,1.43,1.43,0,0,1-.36.66,1.7,1.7,0,0,1-.48.33,1.6,1.6,0,0,1-.69.13,1.59,1.59,0,0,1-.68-.13,1.65,1.65,0,0,1-.47-.33,1.45,1.45,0,0,1-.37-.66,3.75,3.75,0,0,1-.09-.87,3.66,3.66,0,0,1,.09-.86,1.45,1.45,0,0,1,.37-.66,1.65,1.65,0,0,1,.47-.33,1.59,1.59,0,0,1,.68-.13,1.6,1.6,0,0,1,.69.13,1.7,1.7,0,0,1,.48.33,1.43,1.43,0,0,1,.36.66A3.66,3.66,0,0,1,60.06,26.31Zm-.78,0a3.78,3.78,0,0,0,0-.6.83.83,0,0,0-.22-.46.78.78,0,0,0-.58-.22.75.75,0,0,0-.56.22.77.77,0,0,0-.22.46,3.63,3.63,0,0,0,0,1.2.77.77,0,0,0,.22.46.73.73,0,0,0,.56.23.78.78,0,0,0,.58-.23.83.83,0,0,0,.22-.46A3.78,3.78,0,0,0,59.28,26.31Z"/><path class="cls-1" d="M62.16,28.25a1.21,1.21,0,0,1-.48-.09.86.86,0,0,1-.33-.23.88.88,0,0,1-.19-.34,1.4,1.4,0,0,1-.06-.41V22.81h.78v4.33a.52.52,0,0,0,.09.33.39.39,0,0,0,.33.12h.34v.66Z"/><path class="cls-1" d="M66.4,26.31a3.75,3.75,0,0,1-.09.87,1.55,1.55,0,0,1-.37.66,1.7,1.7,0,0,1-.48.33,1.59,1.59,0,0,1-.68.13,1.53,1.53,0,0,1-.68-.13,1.7,1.7,0,0,1-.48-.33,1.55,1.55,0,0,1-.37-.66,3.75,3.75,0,0,1-.09-.87,3.66,3.66,0,0,1,.09-.86,1.55,1.55,0,0,1,.37-.66,1.7,1.7,0,0,1,.48-.33,1.53,1.53,0,0,1,.68-.13,1.59,1.59,0,0,1,.68.13,1.7,1.7,0,0,1,.48.33,1.55,1.55,0,0,1,.37.66A3.66,3.66,0,0,1,66.4,26.31Zm-.78,0a3.73,3.73,0,0,0-.05-.6.8.8,0,0,0-1.58,0,3.63,3.63,0,0,0,0,1.2.77.77,0,0,0,.22.46.82.82,0,0,0,1.14,0,.77.77,0,0,0,.22-.46A3.73,3.73,0,0,0,65.62,26.31Z"/><path class="cls-1" d="M70.41,28.23a2,2,0,0,1-.11.66,1.5,1.5,0,0,1-.33.51,1.42,1.42,0,0,1-.52.34,1.71,1.71,0,0,1-.7.13,2.11,2.11,0,0,1-.75-.12,1.81,1.81,0,0,1-.62-.4l.5-.49a1.67,1.67,0,0,0,.37.26,1.24,1.24,0,0,0,.47.08,1,1,0,0,0,.42-.08.76.76,0,0,0,.28-.22.71.71,0,0,0,.16-.31,1.17,1.17,0,0,0,0-.38v-.49a1.16,1.16,0,0,1-.46.35,1.53,1.53,0,0,1-.54.09,1.51,1.51,0,0,1-.53-.09,1.19,1.19,0,0,1-.39-.25,1.29,1.29,0,0,1-.36-.68,4.94,4.94,0,0,1-.08-.9,4.74,4.74,0,0,1,.08-.89,1.23,1.23,0,0,1,1.29-1,1.55,1.55,0,0,1,.55.09,1.3,1.3,0,0,1,.47.37v-.41h.75Zm-.78-2a3.39,3.39,0,0,0,0-.45,1.25,1.25,0,0,0-.11-.39.62.62,0,0,0-.24-.27.71.71,0,0,0-.41-.1.76.76,0,0,0-.43.1.78.78,0,0,0-.24.27,1.24,1.24,0,0,0-.1.39,3.39,3.39,0,0,0,0,.9,1.24,1.24,0,0,0,.1.39.7.7,0,0,0,.24.27.76.76,0,0,0,.43.11.71.71,0,0,0,.41-.11.57.57,0,0,0,.24-.27,1.25,1.25,0,0,0,.11-.39A3.39,3.39,0,0,0,69.63,26.24Zm-.52-2.57h-.59l.58-1.24H70Z"/><path class="cls-1" d="M71.63,23.61v-.83h.83v.83Zm0,4.64V24.38h.78v3.87Z"/><path class="cls-1" d="M74.45,28.77a1.34,1.34,0,0,1-.06.4.81.81,0,0,1-.19.34,1,1,0,0,1-.33.24,1.21,1.21,0,0,1-.48.09h-.48v-.67h.34a.42.42,0,0,0,.33-.11.55.55,0,0,0,.09-.34V24.38h.78Zm-.8-5.16v-.83h.82v.83Z"/><path class="cls-1" d="M78,28.25v-.39a1.18,1.18,0,0,1-.47.33,1.55,1.55,0,0,1-.56.11,1.53,1.53,0,0,1-.54-.09A1.29,1.29,0,0,1,76,28a1.14,1.14,0,0,1-.3-.5,1.89,1.89,0,0,1-.09-.6V24.38h.78v2.36a.87.87,0,0,0,.23.66.9.9,0,0,0,.86.15.61.61,0,0,0,.26-.15.88.88,0,0,0,.17-.28,1,1,0,0,0,.07-.38V24.38h.78v3.87Z"/><path class="cls-1" d="M44,36.21v-.39a1.22,1.22,0,0,1-.48.33,1.51,1.51,0,0,1-.56.11,1.53,1.53,0,0,1-.54-.09,1.31,1.31,0,0,1-.41-.26,1.27,1.27,0,0,1-.31-.5,1.9,1.9,0,0,1-.08-.6V32.33h.78V34.7a.86.86,0,0,0,.22.66.83.83,0,0,0,.56.2,1.12,1.12,0,0,0,.31-.05.58.58,0,0,0,.25-.15.88.88,0,0,0,.17-.28A.89.89,0,0,0,44,34.7V32.33h.78v3.88Z"/><path class="cls-1" d="M48.33,36.21V33.85a.86.86,0,0,0-.22-.66.85.85,0,0,0-1.12,0,.83.83,0,0,0-.24.66v2.36H46V32.33h.76v.39a1.36,1.36,0,0,1,.47-.32,1.41,1.41,0,0,1,.57-.11,1.57,1.57,0,0,1,.54.09,1.15,1.15,0,0,1,.41.26,1.23,1.23,0,0,1,.31.49,2.23,2.23,0,0,1,.08.6v2.48Z"/><path class="cls-1" d="M50.29,31.57v-.83h.83v.83Zm0,4.64V32.33h.78v3.88Z"/><path class="cls-1" d="M53.83,36.21H53.2l-1.43-3.88h.83l.92,2.73.91-2.73h.82Z"/><path class="cls-1" d="M56.44,34.5a1.18,1.18,0,0,0,.25.8,1,1,0,0,0,.74.29A1.33,1.33,0,0,0,58,35.5a1.77,1.77,0,0,0,.41-.31l.49.47a2.32,2.32,0,0,1-.3.26,1.69,1.69,0,0,1-.32.19,2,2,0,0,1-.37.11,3.15,3.15,0,0,1-.46,0,2.15,2.15,0,0,1-.68-.11,1.32,1.32,0,0,1-.56-.33,1.7,1.7,0,0,1-.37-.62,2.76,2.76,0,0,1-.14-.93,2.19,2.19,0,0,1,.45-1.47,1.52,1.52,0,0,1,1.2-.51,1.59,1.59,0,0,1,.7.14,1.37,1.37,0,0,1,.51.38,1.6,1.6,0,0,1,.32.59,2.27,2.27,0,0,1,.12.75v.35ZM58.18,34a2.07,2.07,0,0,0,0-.29,1.13,1.13,0,0,0-.08-.24.79.79,0,0,0-.29-.36.84.84,0,0,0-.48-.13.86.86,0,0,0-.48.13.79.79,0,0,0-.29.36.75.75,0,0,0-.08.24,2.07,2.07,0,0,0,0,.29Z"/><path class="cls-1" d="M62.11,33.24a1,1,0,0,0-.25-.19.77.77,0,0,0-.33-.07.71.71,0,0,0-.54.24.88.88,0,0,0-.23.64v2.35H60V32.33h.77v.42a1.09,1.09,0,0,1,.42-.33,1.39,1.39,0,0,1,.61-.13,1.54,1.54,0,0,1,.5.08,1.14,1.14,0,0,1,.42.29Z"/><path class="cls-1" d="M66.13,35a1.12,1.12,0,0,1-.12.53,1.26,1.26,0,0,1-.34.39,1.5,1.5,0,0,1-.51.23,2.61,2.61,0,0,1-.64.08,3.48,3.48,0,0,1-.88-.11,1.84,1.84,0,0,1-.75-.45l.51-.51a1.13,1.13,0,0,0,.53.32,2,2,0,0,0,.59.08,1.21,1.21,0,0,0,.6-.13.43.43,0,0,0,.25-.4.42.42,0,0,0-.12-.32.61.61,0,0,0-.4-.14l-.62-.06a1.46,1.46,0,0,1-.85-.3,1,1,0,0,1-.3-.77,1.15,1.15,0,0,1,.11-.5,1,1,0,0,1,.32-.37,1.33,1.33,0,0,1,.46-.23,1.79,1.79,0,0,1,.57-.08,2.87,2.87,0,0,1,.8.1,1.56,1.56,0,0,1,.64.33l-.49.5a1.25,1.25,0,0,0-.43-.22,2.26,2.26,0,0,0-.53-.06.82.82,0,0,0-.53.14.45.45,0,0,0-.17.36.44.44,0,0,0,.11.29.64.64,0,0,0,.42.15l.62,0a1.49,1.49,0,0,1,.85.31A1,1,0,0,1,66.13,35Z"/><path class="cls-1" d="M67.06,31.57v-.83h.82v.83Zm0,4.64V32.33h.78v3.88Z"/><path class="cls-1" d="M70.25,36.21a1.13,1.13,0,0,1-.47-.09,1,1,0,0,1-.33-.24,1.1,1.1,0,0,1-.2-.35,1.34,1.34,0,0,1-.06-.4V33h-.44v-.6h.44V31.22H70V32.4h.75V33H70v2.1a.48.48,0,0,0,.1.33.42.42,0,0,0,.33.12h.32v.66Z"/><path class="cls-1" d="M73.78,36.21v-.35a1.45,1.45,0,0,1-.45.31,1.57,1.57,0,0,1-.58.09,1.85,1.85,0,0,1-.62-.09,1.11,1.11,0,0,1-.42-.26,1.16,1.16,0,0,1-.31-.84,1.06,1.06,0,0,1,.33-.8,1.42,1.42,0,0,1,1-.31h1v-.28a.72.72,0,0,0-.19-.55,1,1,0,0,0-.66-.18,1.15,1.15,0,0,0-.5.09.83.83,0,0,0-.34.29l-.52-.48a1.43,1.43,0,0,1,.6-.44,2.23,2.23,0,0,1,.79-.12c1.07,0,1.6.44,1.6,1.33v2.59ZM71.9,30.93h2.37v.56H71.9Zm1.86,3.57h-.91a.85.85,0,0,0-.52.14.54.54,0,0,0-.17.42.49.49,0,0,0,.17.41.85.85,0,0,0,.54.14,1.64,1.64,0,0,0,.4,0,.68.68,0,0,0,.33-.18.84.84,0,0,0,.16-.58Z"/><path class="cls-1" d="M76.89,36.21a1.13,1.13,0,0,1-.47-.09.91.91,0,0,1-.33-.24,1.1,1.1,0,0,1-.2-.35,1.34,1.34,0,0,1-.06-.4V33h-.45v-.6h.45V31.22h.78V32.4h.75V33h-.75v2.1a.48.48,0,0,0,.1.33.42.42,0,0,0,.33.12h.32v.66Z"/><path class="cls-1" d="M78.91,34.5a1.18,1.18,0,0,0,.25.8,1,1,0,0,0,.74.29,1.33,1.33,0,0,0,.53-.09,1.77,1.77,0,0,0,.41-.31l.5.47a3.29,3.29,0,0,1-.31.26,1.69,1.69,0,0,1-.32.19,2,2,0,0,1-.37.11,3.15,3.15,0,0,1-.46,0,2.15,2.15,0,0,1-.68-.11,1.39,1.39,0,0,1-.56-.33,1.7,1.7,0,0,1-.37-.62,2.76,2.76,0,0,1-.14-.93,2.19,2.19,0,0,1,.45-1.47,1.52,1.52,0,0,1,1.2-.51,1.59,1.59,0,0,1,.7.14,1.37,1.37,0,0,1,.51.38,1.77,1.77,0,0,1,.33.59,2.56,2.56,0,0,1,.11.75v.35ZM80.65,34a2.07,2.07,0,0,0,0-.29,1.13,1.13,0,0,0-.08-.24.79.79,0,0,0-.29-.36.84.84,0,0,0-.48-.13.86.86,0,0,0-.48.13.79.79,0,0,0-.29.36.75.75,0,0,0-.08.24c0,.07,0,.17,0,.29Z"/><polygon class="cls-1" points="7.76 11.96 11.01 7.18 11.01 2.67 7.76 7.46 7.76 11.96"/><polygon class="cls-1" points="11.01 20.25 11.01 15.74 7.76 20.53 7.76 25.04 11.01 20.25"/><polygon class="cls-1" points="11.01 9.21 7.76 13.99 7.76 18.5 11.01 13.71 11.01 9.21"/><path class="cls-1" d="M7.76,27.47v.82a11.22,11.22,0,1,0,22.43,0V20.48l-3.25,4.79v3a8,8,0,0,1-15.93,0V22.68Z"/><path class="cls-1" d="M31.77,20.48v7.81a12.8,12.8,0,0,1-25.59,0v-.82L2.93,22.68v5.61a16,16,0,1,0,32.09,0v-3Z"/><path class="cls-1" d="M30.19,18.45l-3.25,4.78v-4.5l3.25-4.79Zm0-17.58L26.94,5.66v4.5l3.25-4.78Zm0,6.54-3.25,4.78V16.7l3.25-4.79Zm1.58,11L35,23.24V18.73l-3.25-4.79Zm0-6.54L35,16.7V12.2L31.77,7.41Zm0-11V5.38L35,10.17V5.66Z"/><polygon class="cls-1" points="6.18 20.53 2.93 15.75 2.93 20.25 6.18 25.04 6.18 20.53"/><polygon class="cls-1" points="6.18 13.99 2.93 9.21 2.93 13.72 6.18 18.5 6.18 13.99"/><polygon class="cls-1" points="6.97 0.66 4.89 3.73 6.97 6.79 9.05 3.73 6.97 0.66"/><polygon class="cls-1" points="6.18 7.46 6.18 11.96 2.93 7.18 2.93 2.67 6.18 7.46"/><g id="_1f1Dze" data-name="1f1Dze"><path class="cls-1" d="M16.65,23.75v.57a.21.21,0,0,1-.1.21A4.17,4.17,0,0,0,18.1,32a4.17,4.17,0,0,0,3.17-7.56.32.32,0,0,1-.17-.32c0-.4,0-.81,0-1.21a.25.25,0,0,1,.07-.19c.34-.32.66-.65,1-1a.13.13,0,0,1,.2,0,7.65,7.65,0,0,1,1.16.79.12.12,0,0,1,0,.18c-.16.36-.31.73-.47,1.1a.15.15,0,0,0,0,.19c.25.31.49.63.73.94A.13.13,0,0,0,24,25c.38-.06.77-.11,1.15-.18a.19.19,0,0,1,.23.13,8.09,8.09,0,0,1,.45,1.28c0,.09,0,.14-.07.18l-1,.6a.17.17,0,0,0-.1.18c0,.39,0,.77,0,1.16a.18.18,0,0,0,.13.19l1,.53c.09,0,.12.09.1.18a9,9,0,0,1-.4,1.34.13.13,0,0,1-.16.1l-1.1-.1a.26.26,0,0,0-.31.13c-.2.31-.41.61-.62.91a.17.17,0,0,0,0,.2c.18.36.35.72.54,1.07a.13.13,0,0,1,0,.17,8.67,8.67,0,0,1-1.14.88.12.12,0,0,1-.17,0l-.91-.8a.16.16,0,0,0-.17,0l-1.12.4a.17.17,0,0,0-.13.16c-.06.39-.13.78-.19,1.18a.13.13,0,0,1-.12.11,7.11,7.11,0,0,1-1.46,0c-.09,0-.09-.06-.11-.12-.08-.39-.18-.78-.26-1.17a.14.14,0,0,0-.12-.13l-1.15-.34a.14.14,0,0,0-.17,0c-.28.29-.57.56-.86.84-.06.07-.1.07-.18,0a7.64,7.64,0,0,1-1.17-.81.12.12,0,0,1,0-.16c.17-.37.32-.75.49-1.11a.17.17,0,0,0,0-.18l-.73-.95a.16.16,0,0,0-.17-.07L12.79,31c-.11,0-.18,0-.23-.12a9.85,9.85,0,0,1-.45-1.29.14.14,0,0,1,.08-.19l1-.58a.19.19,0,0,0,.11-.21c0-.39,0-.78,0-1.17a.13.13,0,0,0-.1-.14l-1.06-.55a.16.16,0,0,1-.09-.18,8.57,8.57,0,0,1,.39-1.31c0-.09.08-.1.17-.09l1.18.11a.19.19,0,0,0,.18-.09c.21-.33.44-.65.66-1a.14.14,0,0,0,0-.17L14.08,23c0-.08,0-.12,0-.18a8.67,8.67,0,0,1,1.14-.88c.07-.05.11,0,.17,0l1.17,1a.16.16,0,0,1,.07.15v.63Z"/><path class="cls-1" d="M15.21,27.92a3.71,3.71,0,0,1,1.61-3.07.21.21,0,0,0,.1-.2v-2.9a.3.3,0,0,0-.09-.24l-1.28-1.3a.29.29,0,0,1-.1-.23c0-1.17,0-2.35,0-3.52a.19.19,0,0,0-.13-.21,1,1,0,0,1,.55-2,1,1,0,0,1,.26,2,.14.14,0,0,0-.11.16q0,1.68,0,3.36a.27.27,0,0,0,.08.19l1.3,1.32a.29.29,0,0,1,.09.22V25a.18.18,0,0,1-.11.19,3.2,3.2,0,1,0,3-.08.22.22,0,0,1-.15-.24c0-1.11,0-2.21,0-3.31a.34.34,0,0,1,.11-.26c.43-.43.85-.87,1.28-1.31a.21.21,0,0,0,.08-.18V16.45c0-.1,0-.14-.12-.17a1.05,1.05,0,0,1-.67-1.21,1.06,1.06,0,0,1,2.08.06,1.05,1.05,0,0,1-.58,1.1.21.21,0,0,0-.14.23c0,1.17,0,2.34,0,3.5a.31.31,0,0,1-.11.26L20.9,21.54a.21.21,0,0,0-.07.16v2.86a.16.16,0,0,0,.09.15,3.76,3.76,0,1,1-5.63,4A3.47,3.47,0,0,1,15.21,27.92Zm6.27-12.63a.48.48,0,0,0,.49.48.5.5,0,0,0,.48-.49.48.48,0,0,0-.48-.47A.48.48,0,0,0,21.48,15.29Zm-5.75-.48a.48.48,0,1,0,.49.48A.48.48,0,0,0,15.73,14.81Z"/><path class="cls-1" d="M19,17.12a1.05,1.05,0,0,1,.42,2,.18.18,0,0,0-.13.2v7.45c0,.11,0,.16.12.2A1,1,0,0,1,20,28.16a1.06,1.06,0,0,1-2.07,0A1.05,1.05,0,0,1,18.58,27a.16.16,0,0,0,.12-.17c0-2.48,0-5,0-7.45a.2.2,0,0,0-.15-.22,1.05,1.05,0,0,1,.42-2Zm-.48,1.06a.48.48,0,0,0,.49.48.49.49,0,1,0,0-1A.49.49,0,0,0,18.49,18.18Zm0,9.78a.49.49,0,0,0,1,0,.49.49,0,1,0-1,0Z"/></g></svg>